<svg width="178" height="178" viewBox="0 0 178 178" fill="none" xmlns="http://www.w3.org/2000/svg">
<g filter="url(#filter0_d_51_2)">
<path d="M21.4 17.8C62.9 41.7 113.9 41.7 155.4 17.8C135.2 6.40005 112.3 0.300049 88.4 0.300049C64.4 0.300049 41.6 6.40005 21.4 17.8ZM21.4 151.8C45.4 110.3 45.3 59.2001 21.4 17.8C10 38 4 60.8 4 84.7C4 108.7 10 131.6 21.4 151.8ZM155.7 151.5C114.2 175.4 63.1 175.5 21.7 151.5C41.9 140.1 64.8 134.1 88.7 134.1C112.6 134.1 135.5 140.1 155.7 151.5ZM155.6 151.8C131.7 110.3 131.7 59.2001 155.7 17.8C167.1 38 173.1 60.8 173.1 84.7C173.1 108.7 167.1 131.6 155.6 151.8Z" fill="url(#paint0_linear_51_2)"/>
</g>
<defs>
<filter id="filter0_d_51_2" x="-1" y="0" width="179" height="178" filterUnits="userSpaceOnUse" color-interpolation-filters="sRGB">
<feFlood flood-opacity="0" result="BackgroundImageFix"/>
<feColorMatrix in="SourceAlpha" type="matrix" values="0 0 0 0 0 0 0 0 0 0 0 0 0 0 0 0 0 0 127 0" result="hardAlpha"/>
<feOffset dy="4"/>
<feGaussianBlur stdDeviation="2"/>
<feComposite in2="hardAlpha" operator="out"/>
<feColorMatrix type="matrix" values="0 0 0 0 0 0 0 0 0 0 0 0 0 0 0 0 0 0 0.25 0"/>
<feBlend mode="normal" in2="BackgroundImageFix" result="effect1_dropShadow_51_2"/>
<feBlend mode="normal" in="SourceGraphic" in2="effect1_dropShadow_51_2" result="shape"/>
</filter>
<linearGradient id="paint0_linear_51_2" x1="88.55" y1="0.300049" x2="88.55" y2="169.463" gradientUnits="userSpaceOnUse">
<stop stop-color="#9810FA"/>
<stop offset="1" stop-color="#6145FF"/>
</linearGradient>
</defs>
</svg>
